<svg width="19" height="14" viewBox="0 0 19 14" fill="none" xmlns="http://www.w3.org/2000/svg">
<path d="M5.00065 5.33398C5.00065 4.87375 5.37375 4.50065 5.83398 4.50065H10.0007C10.4609 4.50065 10.834 4.87375 10.834 5.33398C10.834 5.79422 10.4609 6.16732 10.0007 6.16732H5.83398C5.37375 6.16732 5.00065 5.79422 5.00065 5.33398Z" fill="#262626"/>
<path d="M5.83398 7.83398C5.37375 7.83398 5.00065 8.20708 5.00065 8.66732C5.00065 9.12755 5.37375 9.50065 5.83398 9.50065H13.334C13.7942 9.50065 14.1673 9.12755 14.1673 8.66732C14.1673 8.20708 13.7942 7.83398 13.334 7.83398H5.83398Z" fill="#262626"/>
<path fill-rule="evenodd" clip-rule="evenodd" d="M0.833984 10.334C0.833984 12.1749 2.32637 13.6673 4.16732 13.6673H14.1673C16.0083 13.6673 17.5006 12.1749 17.5006 10.334V4.7479C17.5006 4.45785 17.5763 4.17283 17.7202 3.921L18.3451 2.82755C18.98 1.71646 18.1777 0.333984 16.898 0.333984H4.16732C2.32637 0.333984 0.833984 1.82637 0.833984 3.66732V10.334ZM4.16732 12.0007C3.24684 12.0007 2.50065 11.2545 2.50065 10.334V3.66732C2.50065 2.74684 3.24684 2.00065 4.16732 2.00065H16.898L16.2732 3.0941C15.9854 3.59776 15.834 4.16781 15.834 4.7479V10.334C15.834 11.2545 15.0878 12.0007 14.1673 12.0007H4.16732Z" fill="#262626"/>
</svg>
