<svg width="16" height="16" viewBox="0 0 16 16" fill="none" xmlns="http://www.w3.org/2000/svg">
<path d="M12.5003 4V10.5C12.5003 10.6326 12.4476 10.7598 12.3538 10.8536C12.2601 10.9473 12.1329 11 12.0003 11C11.8677 11 11.7405 10.9473 11.6467 10.8536C11.553 10.7598 11.5003 10.6326 11.5003 10.5V5.20687L4.35403 12.3538C4.26021 12.4476 4.13296 12.5003 4.00028 12.5003C3.8676 12.5003 3.74035 12.4476 3.64653 12.3538C3.55271 12.2599 3.5 12.1327 3.5 12C3.5 11.8673 3.55271 11.7401 3.64653 11.6462L10.7934 4.5H5.50028C5.36767 4.5 5.24049 4.44732 5.14672 4.35355C5.05296 4.25979 5.00028 4.13261 5.00028 4C5.00028 3.86739 5.05296 3.74021 5.14672 3.64645C5.24049 3.55268 5.36767 3.5 5.50028 3.5H12.0003C12.1329 3.5 12.2601 3.55268 12.3538 3.64645C12.4476 3.74021 12.5003 3.86739 12.5003 4Z" fill="#004EEA"/>
</svg>
