<svg width="20" height="20" viewBox="0 0 20 20" fill="none" xmlns="http://www.w3.org/2000/svg">
<path d="M14.6545 11.3156L12.1545 10.0656C12.0561 10.0166 11.9465 9.99438 11.8368 10.0012C11.727 10.0081 11.621 10.0438 11.5295 10.1047L10.3819 10.8703C9.85502 10.5807 9.42147 10.1471 9.13185 9.62031L9.89748 8.47266C9.95839 8.38112 9.99407 8.27514 10.0009 8.1654C10.0078 8.05567 9.98558 7.94606 9.93654 7.84766L8.68654 5.34766C8.63473 5.24302 8.55464 5.155 8.45536 5.09355C8.35608 5.0321 8.24158 4.9997 8.12482 5C7.29602 5 6.50116 5.32924 5.91511 5.91529C5.32906 6.50134 4.99982 7.2962 4.99982 8.125C5.00189 9.94773 5.72688 11.6952 7.01574 12.9841C8.30461 14.2729 10.0521 14.9979 11.8748 15C12.2852 15 12.6916 14.9192 13.0707 14.7621C13.4498 14.6051 13.7943 14.3749 14.0845 14.0847C14.3747 13.7945 14.6049 13.45 14.7619 13.0709C14.919 12.6917 14.9998 12.2854 14.9998 11.875C14.9999 11.7589 14.9676 11.645 14.9066 11.5462C14.8457 11.4474 14.7583 11.3676 14.6545 11.3156ZM11.8748 13.75C10.3835 13.7483 8.9537 13.1552 7.89917 12.1006C6.84464 11.0461 6.25147 9.61634 6.24982 8.125C6.2497 7.6915 6.39979 7.27135 6.67456 6.93605C6.94932 6.60075 7.33178 6.37101 7.75685 6.28594L8.65373 8.08281L7.89044 9.21875C7.83341 9.30431 7.79836 9.40262 7.78841 9.50496C7.77846 9.60731 7.79392 9.71053 7.83341 9.80547C8.28059 10.8683 9.12608 11.7138 10.1889 12.1609C10.2841 12.2022 10.3881 12.2191 10.4915 12.2101C10.5949 12.2011 10.6944 12.1665 10.7811 12.1094L11.9225 11.3484L13.7194 12.2453C13.6336 12.6709 13.4029 13.0535 13.0665 13.3279C12.7301 13.6023 12.3089 13.7515 11.8748 13.75ZM9.99982 1.875C8.59706 1.87469 7.21811 2.23757 5.9972 2.9283C4.77629 3.61904 3.75501 4.6141 3.03277 5.81664C2.31052 7.01918 1.91192 8.38822 1.87575 9.79052C1.83958 11.1928 2.16709 12.5806 2.82638 13.8188L1.93966 16.4789C1.86621 16.6992 1.85556 16.9355 1.90888 17.1615C1.96221 17.3874 2.07741 17.5941 2.24158 17.7582C2.40575 17.9224 2.61239 18.0376 2.83836 18.0909C3.06432 18.1443 3.30067 18.1336 3.52091 18.0602L6.18107 17.1734C7.27073 17.753 8.47811 18.0767 9.71156 18.12C10.945 18.1633 12.1721 17.925 13.2997 17.4232C14.4273 16.9215 15.4258 16.1694 16.2194 15.2241C17.0129 14.2789 17.5807 13.1652 17.8796 11.9678C18.1785 10.7703 18.2007 9.52047 17.9445 8.31315C17.6882 7.10584 17.1603 5.97276 16.4008 4.99993C15.6413 4.02711 14.6701 3.24009 13.561 2.69864C12.4519 2.15718 11.234 1.87551 9.99982 1.875ZM9.99982 16.875C8.79121 16.8758 7.6038 16.5575 6.55763 15.9523C6.48104 15.9079 6.39587 15.8803 6.30779 15.8713C6.2197 15.8622 6.13071 15.872 6.0467 15.9L3.12482 16.875L4.09904 13.9531C4.12712 13.8692 4.13705 13.7802 4.12816 13.6921C4.11927 13.604 4.09177 13.5188 4.04748 13.4422C3.28964 12.132 2.98537 10.6083 3.18187 9.10747C3.37837 7.60667 4.06466 6.21267 5.13426 5.14171C6.20387 4.07076 7.597 3.38271 9.09755 3.18431C10.5981 2.98592 12.1222 3.28826 13.4334 4.04444C14.7445 4.80062 15.7695 5.96837 16.3493 7.36652C16.9291 8.76468 17.0313 10.3151 16.64 11.7773C16.2487 13.2394 15.3858 14.5316 14.1852 15.4533C12.9846 16.375 11.5134 16.8748 9.99982 16.875Z" fill="#004EEA"/>
</svg>
