<svg width="20" height="20" viewBox="0 0 20 20" fill="none" xmlns="http://www.w3.org/2000/svg">
<path d="M16.7972 17.1758C16.7434 17.2738 16.6642 17.3556 16.568 17.4126C16.4719 17.4696 16.3621 17.4998 16.2503 17.5H12.5003C12.3951 17.5 12.2916 17.4734 12.1995 17.4227C12.1073 17.3721 12.0294 17.2989 11.973 17.2102L8.80968 12.2391L4.2128 17.2953C4.10074 17.4157 3.94575 17.487 3.78143 17.4939C3.61712 17.5008 3.45671 17.4426 3.335 17.332C3.21329 17.2214 3.14008 17.0673 3.13125 16.903C3.12241 16.7388 3.17866 16.5777 3.2878 16.4547L8.11359 11.1422L3.22296 3.46094C3.16273 3.36644 3.12901 3.25749 3.12534 3.14548C3.12166 3.03348 3.14817 2.92255 3.20208 2.82431C3.256 2.72607 3.33533 2.64413 3.43178 2.58708C3.52823 2.53002 3.63824 2.49995 3.7503 2.5H7.5003C7.60549 2.50003 7.70897 2.52661 7.80115 2.57728C7.89334 2.62795 7.97124 2.70106 8.02765 2.78984L11.1909 7.76094L15.7878 2.70469C15.8999 2.58431 16.0549 2.51296 16.2192 2.50609C16.3835 2.49923 16.5439 2.5574 16.6656 2.66801C16.7873 2.77862 16.8605 2.93275 16.8694 3.09697C16.8782 3.2612 16.8219 3.42228 16.7128 3.54531L11.887 8.85391L16.7776 16.5398C16.8375 16.6344 16.871 16.7433 16.8744 16.8551C16.8778 16.967 16.8512 17.0777 16.7972 17.1758Z" fill="#004EEA"/>
</svg>
