<svg width="50" height="40" viewBox="0 0 50 40" fill="none" xmlns="http://www.w3.org/2000/svg">
<path d="M37.6172 35.3096C37.6172 35.3096 38.3454 36.3812 40.6647 37.885C40.8383 37.9961 41.0204 38.1109 41.2121 38.2269C41.9403 38.6701 42.796 39.1418 43.807 39.6306L44.0497 33.3343C44.0497 33.3343 47.2053 33.5812 49.9967 32.3466C49.6751 32.1837 48.2891 31.4244 46.2962 29.8528C46.1178 29.7133 45.9321 29.5651 45.7452 29.4108C44.8641 28.6898 43.8822 27.8219 42.8324 26.791C41.2582 29.5071 37.6172 35.3096 37.6172 35.3096Z" fill="url(#paint0_linear_7309_74826)"/>
<path d="M12.3796 34.9405C12.3796 34.9405 11.6513 36.0121 9.332 37.5158C9.15844 37.6269 8.97639 37.7417 8.78463 37.8578C8.05642 38.301 7.20684 38.7726 6.18978 39.2615L5.94704 32.9652C5.94704 32.9652 2.79147 33.2121 0 31.9775C0.321626 31.8145 1.70765 31.0553 3.70052 29.4836C3.87893 29.3441 4.06462 29.196 4.25153 29.0417C5.13266 28.3207 6.11453 27.4527 7.16436 26.4219C8.73851 29.138 12.3796 34.9405 12.3796 34.9405Z" fill="url(#paint1_linear_7309_74826)"/>
<path d="M25.0059 0C35.8644 0.000251379 44.6669 8.95444 44.667 20C44.667 31.0457 35.8645 39.9997 25.0059 40C14.147 40 5.34375 31.0458 5.34375 20C5.34386 8.95429 14.1471 0 25.0059 0ZM25.0098 4.81641C16.7653 4.8166 10.082 11.6154 10.082 20.002C10.0821 28.3884 16.7653 35.1873 25.0098 35.1875C33.2544 35.1875 39.9384 28.3885 39.9385 20.002C39.9385 11.6153 33.2544 4.81641 25.0098 4.81641Z" fill="#84391B"/>
<mask id="mask0_7309_74826" style="mask-type:alpha" maskUnits="userSpaceOnUse" x="5" y="0" width="40" height="40">
<path d="M24.9902 0C35.8489 0.000104831 44.6513 8.95435 44.6514 20C44.6514 31.0457 35.849 39.9999 24.9902 40C14.1314 40 5.32812 31.0458 5.32812 20C5.32823 8.95429 14.1315 0 24.9902 0ZM24.9873 4.81641C16.7426 4.81641 10.0586 11.6153 10.0586 20.002C10.0587 28.3885 16.7427 35.1875 24.9873 35.1875C33.2318 35.1874 39.9149 28.3884 39.915 20.002C39.915 11.6154 33.2319 4.81653 24.9873 4.81641Z" fill="#6C7E92"/>
</mask>
<g mask="url(#mask0_7309_74826)">
<g filter="url(#filter0_f_7309_74826)">
<ellipse cx="4.52615" cy="9.188" rx="4.52615" ry="9.188" transform="matrix(0.730875 0.682511 -0.669981 0.742378 15.9531 -3.06445)" fill="#F9EEDE"/>
</g>
<g filter="url(#filter1_f_7309_74826)">
<ellipse cx="4.51008" cy="9.22042" rx="4.51008" ry="9.22042" transform="matrix(-0.86229 0.506416 -0.493612 -0.869682 46.2422 12.5801)" fill="#DED6C3"/>
</g>
<g filter="url(#filter2_f_7309_74826)">
<ellipse cx="4.52945" cy="9.18132" rx="4.52945" ry="9.18132" transform="matrix(-0.701045 -0.713117 0.701045 -0.713117 32.8047 43.4043)" fill="#E0C9B8"/>
</g>
<g filter="url(#filter3_f_7309_74826)">
<ellipse cx="4.52945" cy="9.18132" rx="4.52945" ry="9.18132" transform="matrix(0.701045 -0.713117 0.701045 0.713117 3.63281 28.582)" fill="#E29F50"/>
</g>
</g>
<ellipse cx="24.9986" cy="20.0017" rx="14.9283" ry="15.1853" fill="url(#paint2_linear_7309_74826)"/>
<path d="M24.998 3.70508C33.8458 3.70533 41.0186 11.0018 41.0186 20.002C41.0183 29.0019 33.8456 36.2976 24.998 36.2979C16.1502 36.2979 8.97678 29.002 8.97656 20.002C8.97656 11.0017 16.1501 3.70508 24.998 3.70508ZM24.9961 4.81641C16.7514 4.81641 10.0674 11.6153 10.0674 20.002C10.0675 28.3885 16.7515 35.1875 24.9961 35.1875C33.2405 35.1873 39.9237 28.3884 39.9238 20.002C39.9238 11.6154 33.2406 4.81661 24.9961 4.81641Z" fill="url(#paint3_linear_7309_74826)"/>
<path d="M25.6644 13.7769L27.1936 16.9374C27.3029 17.172 27.5213 17.3325 27.7762 17.3695L31.2109 17.8757C31.842 17.9745 32.0969 18.7646 31.6357 19.2091L29.1477 21.6659C28.9656 21.8511 28.8806 22.1103 28.9292 22.3572L29.5118 25.8264C29.621 26.4684 28.9535 26.9499 28.3952 26.6536L25.3367 25.0239C25.1061 24.9005 24.8391 24.9005 24.6206 25.0239L21.55 26.6659C20.9796 26.9622 20.3242 26.4807 20.4334 25.8388L21.016 22.3696C21.0645 22.1103 20.9796 21.8511 20.7975 21.6782L18.3216 19.2214C17.8604 18.7646 18.1153 17.9745 18.7464 17.8881L22.1811 17.3819C22.436 17.3448 22.6545 17.1843 22.7637 16.9498L24.2929 13.7892C24.5599 13.1843 25.3852 13.1843 25.6644 13.7769Z" fill="url(#paint4_linear_7309_74826)"/>
<path d="M20.252 22.2266L20.2725 22.2295M20.252 22.2266L20.7979 21.6777M20.252 22.2266L20.2725 22.2295M20.252 22.2266L20.7979 21.6777M20.2725 22.2295L20.7979 21.6777M20.2725 22.2295L20.7979 21.6777M23.3926 13.3535C24.0293 11.9771 25.9388 12.0121 26.5693 13.3506H26.5684L28.043 16.3975L31.3564 16.8867L31.3652 16.8877L31.498 16.9131C32.8334 17.2227 33.3571 18.9248 32.3369 19.9199L32.3379 19.9209L29.9316 22.2959L30.4971 25.6582C30.7419 27.097 29.2372 28.2322 27.9268 27.5371L27.9248 27.5361L24.9785 25.9658L22.0215 27.5479L22.0107 27.5537C20.6915 28.2386 19.2025 27.1093 19.4473 25.6709L20.0127 22.3076L17.6172 19.9316L17.6182 19.9307C16.5978 18.9193 17.119 17.1092 18.6006 16.8984L21.9131 16.4102L23.3926 13.3535Z" stroke="url(#paint5_linear_7309_74826)" stroke-width="2"/>
<path d="M24.999 6.81641C32.1069 6.81664 37.9268 12.6877 37.9268 20.002C37.9266 27.3161 32.1068 33.1873 24.999 33.1875C17.891 33.1875 12.0704 27.3162 12.0703 20.002C12.0703 12.6876 17.891 6.81641 24.999 6.81641Z" stroke="url(#paint6_linear_7309_74826)" stroke-width="4"/>
<path opacity="0.15" d="M40.4192 7.59267C39.4953 8.71742 38.6548 9.58591 37.6296 10.5956C37.5537 10.6723 37.4777 10.749 37.4018 10.8257C37.3512 10.8768 37.3132 10.9152 37.2626 10.9663C37.0727 11.1452 36.8829 11.3369 36.6804 11.5159C36.6045 11.5798 36.5412 11.6437 36.4652 11.7204C36.4146 11.7587 36.364 11.8098 36.326 11.8482C36.2627 11.9121 36.1995 11.9632 36.1362 12.0143C29.4031 18.0343 20.8475 21.7025 11.811 22.3671C11.7225 22.3671 11.6465 22.3799 11.5579 22.3799C11.4946 22.3799 11.4314 22.3927 11.3681 22.3927C11.2668 22.3927 11.1782 22.4055 11.077 22.4055C10.7479 22.4182 10.4189 22.4438 10.0898 22.4438C9.98856 22.4438 9.87465 22.4566 9.77341 22.4566C9.52028 22.4694 9.26716 22.4694 9.02669 22.4694C7.84967 22.4694 6.67265 22.431 5.48297 22.3288C5.39437 21.5747 5.34375 20.795 5.34375 20.0154C5.34375 8.95963 14.2157 0 25.1506 0C30.0739 0 34.4633 1.92196 37.9311 4.93832C38.8297 5.71798 39.6598 6.65964 40.4192 7.59267Z" fill="url(#paint7_linear_7309_74826)"/>
<defs>
<filter id="filter0_f_7309_74826" x="-52.8828" y="-59.6445" width="131.977" height="132.98" filterUnits="userSpaceOnUse" color-interpolation-filters="sRGB">
<feFlood flood-opacity="0" result="BackgroundImageFix"/>
<feBlend mode="normal" in="SourceGraphic" in2="BackgroundImageFix" result="shape"/>
<feGaussianBlur stdDeviation="29.5" result="effect1_foregroundBlur_7309_74826"/>
</filter>
<filter id="filter1_f_7309_74826" x="-27.1875" y="-60.4941" width="129.977" height="134.68" filterUnits="userSpaceOnUse" color-interpolation-filters="sRGB">
<feFlood flood-opacity="0" result="BackgroundImageFix"/>
<feBlend mode="normal" in="SourceGraphic" in2="BackgroundImageFix" result="shape"/>
<feGaussianBlur stdDeviation="29.5" result="effect1_foregroundBlur_7309_74826"/>
</filter>
<filter id="filter2_f_7309_74826" x="-30.1094" y="-32.6758" width="132.352" height="132.605" filterUnits="userSpaceOnUse" color-interpolation-filters="sRGB">
<feFlood flood-opacity="0" result="BackgroundImageFix"/>
<feBlend mode="normal" in="SourceGraphic" in2="BackgroundImageFix" result="shape"/>
<feGaussianBlur stdDeviation="29.5" result="effect1_foregroundBlur_7309_74826"/>
</filter>
<filter id="filter3_f_7309_74826" x="-52.9375" y="-34.4023" width="132.359" height="132.604" filterUnits="userSpaceOnUse" color-interpolation-filters="sRGB">
<feFlood flood-opacity="0" result="BackgroundImageFix"/>
<feBlend mode="normal" in="SourceGraphic" in2="BackgroundImageFix" result="shape"/>
<feGaussianBlur stdDeviation="29.5" result="effect1_foregroundBlur_7309_74826"/>
</filter>
<linearGradient id="paint0_linear_7309_74826" x1="47.2817" y1="36.2748" x2="39.8284" y2="31.1443" gradientUnits="userSpaceOnUse">
<stop stop-color="#FF00B7"/>
<stop offset="0.405" stop-color="#E3029E"/>
<stop offset="0.5279" stop-color="#E527A5"/>
<stop offset="0.6172" stop-color="#B90280"/>
<stop offset="1" stop-color="#730054"/>
</linearGradient>
<linearGradient id="paint1_linear_7309_74826" x1="4.06583" y1="36.1133" x2="9.6641" y2="31.5775" gradientUnits="userSpaceOnUse">
<stop stop-color="#FF00B7"/>
<stop offset="0.405" stop-color="#E3029E"/>
<stop offset="0.5279" stop-color="#E527A5"/>
<stop offset="0.6172" stop-color="#B90280"/>
<stop offset="1" stop-color="#730054"/>
</linearGradient>
<linearGradient id="paint2_linear_7309_74826" x1="24.9986" y1="4.81641" x2="24.9986" y2="35.1871" gradientUnits="userSpaceOnUse">
<stop stop-color="#616184"/>
<stop offset="0.484375" stop-color="#403C55"/>
<stop offset="1" stop-color="#40303A"/>
</linearGradient>
<linearGradient id="paint3_linear_7309_74826" x1="24.9976" y1="3.70508" x2="24.9976" y2="36.2979" gradientUnits="userSpaceOnUse">
<stop stop-color="#3F221F"/>
<stop offset="1" stop-color="#E3A763"/>
</linearGradient>
<linearGradient id="paint4_linear_7309_74826" x1="24.9726" y1="13.4647" x2="24.9726" y2="25.1437" gradientUnits="userSpaceOnUse">
<stop offset="0.0820804" stop-color="#EDB966"/>
<stop offset="0.2263" stop-color="#DDDCD7"/>
<stop offset="0.3883" stop-color="#E9B87D"/>
<stop offset="0.5895" stop-color="#853A27"/>
<stop offset="1" stop-color="#D3954C"/>
</linearGradient>
<linearGradient id="paint5_linear_7309_74826" x1="24.9787" y1="13.334" x2="24.9787" y2="26.7554" gradientUnits="userSpaceOnUse">
<stop stop-color="#3F221F"/>
<stop offset="1" stop-color="#863C1F"/>
</linearGradient>
<linearGradient id="paint6_linear_7309_74826" x1="24.9986" y1="4.81238" x2="24.9986" y2="35.1831" gradientUnits="userSpaceOnUse">
<stop stop-color="#3C3D4F"/>
<stop offset="1" stop-color="#081630"/>
</linearGradient>
<linearGradient id="paint7_linear_7309_74826" x1="14.6118" y1="3.08325" x2="25.9713" y2="18.7141" gradientUnits="userSpaceOnUse">
<stop offset="0.5084" stop-color="white" stop-opacity="0"/>
<stop offset="1" stop-color="white"/>
</linearGradient>
</defs>
</svg>
