<svg width="21" height="20" viewBox="0 0 21 20" fill="none" xmlns="http://www.w3.org/2000/svg">
<path d="M3.83594 4.99935C3.83594 4.53911 4.20903 4.16602 4.66927 4.16602H16.3359C16.7962 4.16602 17.1693 4.53911 17.1693 4.99935C17.1693 5.45959 16.7962 5.83268 16.3359 5.83268H4.66927C4.20903 5.83268 3.83594 5.45959 3.83594 4.99935Z" fill="#8C8C8C"/>
<path d="M5.5026 9.99935C5.5026 9.53911 5.8757 9.16602 6.33594 9.16602H14.6693C15.1295 9.16602 15.5026 9.53911 15.5026 9.99935C15.5026 10.4596 15.1295 10.8327 14.6693 10.8327H6.33594C5.8757 10.8327 5.5026 10.4596 5.5026 9.99935Z" fill="#8C8C8C"/>
<path d="M8.0026 14.166C7.54237 14.166 7.16927 14.5391 7.16927 14.9993C7.16927 15.4596 7.54237 15.8327 8.0026 15.8327H13.0026C13.4628 15.8327 13.8359 15.4596 13.8359 14.9993C13.8359 14.5391 13.4628 14.166 13.0026 14.166H8.0026Z" fill="#8C8C8C"/>
</svg>
