<svg width="12" height="12" viewBox="0 0 12 12" fill="none" xmlns="http://www.w3.org/2000/svg">
<g clip-path="url(#clip0_7309_74736)">
<path fill-rule="evenodd" clip-rule="evenodd" d="M6 0.5C4.20028 0.5 2.60243 1.36495 1.59985 2.69971C0.909357 3.61899 0.5 4.76241 0.5 6C0.5 7.23759 0.909357 8.38102 1.59985 9.30029C2.60243 10.6351 4.20028 11.5 6 11.5C7.79972 11.5 9.39757 10.6351 10.4002 9.30029C11.0906 8.38102 11.5 7.23759 11.5 6C11.5 4.76241 11.0906 3.61899 10.4002 2.69971C9.39757 1.36495 7.79972 0.5 6 0.5ZM2.45074 3.4588C2.56282 3.44841 2.69485 3.43647 2.84222 3.42367C2.80129 4.03097 2.76547 4.74728 2.75391 5.5H1.52743C1.6097 4.75494 1.87371 4.06527 2.27428 3.47542C2.32551 3.47052 2.38464 3.46493 2.45074 3.4588ZM2.27428 8.52458C1.87371 7.93473 1.6097 7.24506 1.52743 6.5H2.75391C2.76547 7.25272 2.80129 7.96904 2.84222 8.57633C2.69485 8.56354 2.56282 8.55159 2.45074 8.5412C2.38464 8.53507 2.32551 8.52948 2.27428 8.52458ZM3.75403 6.5C3.76649 7.28731 3.80621 8.0357 3.85012 8.65617C4.38723 8.69433 4.97115 8.7282 5.5 8.74262V6.5H3.75403ZM3.95967 9.93294C3.9627 9.96257 3.96559 9.99044 3.96832 10.0165C4.43759 10.2543 4.95408 10.4122 5.5 10.4726V9.74297C4.99378 9.72973 4.4439 9.69929 3.93327 9.6644C3.9423 9.75975 3.95076 9.84535 3.95837 9.92013C3.95881 9.92444 3.95924 9.92871 3.95967 9.93294ZM8.03168 10.0165C7.56242 10.2543 7.04592 10.4122 6.5 10.4726V9.74297C7.00622 9.72973 7.5561 9.69929 8.06673 9.6644C8.0577 9.75975 8.04925 9.84535 8.04163 9.92013C8.03813 9.95458 8.0348 9.98672 8.03168 10.0165ZM8.14989 8.65617C7.61277 8.69433 7.02885 8.7282 6.5 8.74262V6.5H8.24597C8.23351 7.28731 8.19379 8.0357 8.14989 8.65617ZM8.14989 3.34383C8.19379 3.96431 8.23351 4.7127 8.24597 5.5H6.5V3.25738C7.02885 3.2718 7.61277 3.30567 8.14989 3.34383ZM8.06673 2.3356C7.5561 2.30071 7.00622 2.27027 6.5 2.25703V1.52745C7.04592 1.58776 7.56241 1.7457 8.03168 1.98354C8.0348 2.01328 8.03813 2.04543 8.04163 2.07987C8.04925 2.15465 8.0577 2.24025 8.06673 2.3356ZM3.93327 2.3356C4.4439 2.30071 4.99378 2.27027 5.5 2.25703V1.52745C4.95408 1.58776 4.43759 1.7457 3.96832 1.98354C3.9652 2.01328 3.96187 2.04543 3.95837 2.07987C3.95076 2.15465 3.9423 2.24025 3.93327 2.3356ZM5.5 3.25738C4.97115 3.2718 4.38723 3.30567 3.85012 3.34383C3.80621 3.96431 3.76649 4.7127 3.75403 5.5H5.5V3.25738ZM9.54926 3.4588C9.43718 3.44841 9.30516 3.43647 9.15778 3.42367C9.19871 4.03097 9.23453 4.74728 9.24609 5.5H10.4726C10.3903 4.75494 10.1263 4.06527 9.72572 3.47542C9.67449 3.47052 9.61536 3.46493 9.54926 3.4588ZM9.15778 8.57633C9.19871 7.96904 9.23453 7.25272 9.24609 6.5H10.4726C10.3903 7.24506 10.1263 7.93473 9.72572 8.52458C9.67449 8.52948 9.61536 8.53507 9.54926 8.5412C9.43718 8.55159 9.30516 8.56354 9.15778 8.57633Z" fill="#1F1F1F"/>
</g>
<defs>
<clipPath id="clip0_7309_74736">
<rect width="12" height="12" fill="white"/>
</clipPath>
</defs>
</svg>
