<svg width="50" height="40" viewBox="0 0 50 40" fill="none" xmlns="http://www.w3.org/2000/svg">
<path d="M37.6172 35.3096C37.6172 35.3096 38.3454 36.3812 40.6647 37.885C40.8383 37.9961 41.0204 38.1109 41.2121 38.2269C41.9403 38.6701 42.796 39.1418 43.807 39.6306L44.0497 33.3343C44.0497 33.3343 47.2053 33.5812 49.9967 32.3466C49.6751 32.1837 48.2891 31.4244 46.2962 29.8528C46.1178 29.7133 45.9321 29.5651 45.7452 29.4108C44.8641 28.6898 43.8822 27.8219 42.8324 26.791C41.2582 29.5071 37.6172 35.3096 37.6172 35.3096Z" fill="url(#paint0_linear_7309_74708)"/>
<path d="M12.3796 34.9405C12.3796 34.9405 11.6513 36.0121 9.332 37.5158C9.15844 37.6269 8.97639 37.7417 8.78463 37.8578C8.05642 38.301 7.20684 38.7726 6.18978 39.2615L5.94704 32.9652C5.94704 32.9652 2.79147 33.2121 0 31.9775C0.321626 31.8145 1.70765 31.0553 3.70052 29.4836C3.87893 29.3441 4.06462 29.196 4.25153 29.0417C5.13266 28.3207 6.11453 27.4527 7.16436 26.4219C8.73851 29.138 12.3796 34.9405 12.3796 34.9405Z" fill="url(#paint1_linear_7309_74708)"/>
<path d="M25.3643 0C36.223 0 45.0263 8.95429 45.0264 20C45.0264 31.0458 36.2231 40 25.3643 40C14.5055 39.9999 5.70312 31.0457 5.70312 20C5.70323 8.95437 14.5056 0.000135928 25.3643 0ZM25.3691 4.81641C17.1245 4.81645 10.4414 11.6153 10.4414 20.002C10.4415 28.3885 17.1246 35.1875 25.3691 35.1875C33.6137 35.1875 40.2977 28.3885 40.2979 20.002C40.2979 11.6153 33.6138 4.81641 25.3691 4.81641Z" fill="#E36302"/>
<mask id="mask0_7309_74708" style="mask-type:alpha" maskUnits="userSpaceOnUse" x="5" y="0" width="41" height="40">
<path d="M25.3643 0C36.223 0 45.0263 8.95429 45.0264 20C45.0264 31.0458 36.2231 40 25.3643 40C14.5055 39.9999 5.70312 31.0457 5.70312 20C5.70323 8.95437 14.5056 0.000135928 25.3643 0ZM25.3691 4.81641C17.1245 4.81645 10.4414 11.6153 10.4414 20.002C10.4415 28.3885 17.1246 35.1875 25.3691 35.1875C33.6137 35.1875 40.2977 28.3885 40.2979 20.002C40.2979 11.6153 33.6138 4.81641 25.3691 4.81641Z" fill="#6C7E92"/>
</mask>
<g mask="url(#mask0_7309_74708)">
<g filter="url(#filter0_f_7309_74708)">
<ellipse cx="7.03344" cy="13.2788" rx="7.03344" ry="13.2788" transform="matrix(0.730875 0.682511 -0.669981 0.742378 21.5078 -8.98242)" fill="#FBEB93"/>
</g>
<g filter="url(#filter1_f_7309_74708)">
<ellipse cx="4.51008" cy="12.7977" rx="4.51008" ry="12.7977" transform="matrix(-0.86229 0.506416 -0.493612 -0.869682 47.3594 14.3574)" fill="#F9C94D"/>
</g>
<g filter="url(#filter2_f_7309_74708)">
<ellipse cx="4.52945" cy="9.18132" rx="4.52945" ry="9.18132" transform="matrix(-0.701045 -0.713117 0.701045 -0.713117 33.0469 43.3809)" fill="#FEDB78"/>
</g>
<g filter="url(#filter3_f_7309_74708)">
<ellipse cx="4.52945" cy="9.18132" rx="4.52945" ry="9.18132" transform="matrix(0.701045 -0.713117 0.701045 0.713117 3.875 28.5586)" fill="#FBE515"/>
</g>
</g>
<ellipse cx="25.3658" cy="20.0017" rx="14.9283" ry="15.1853" fill="url(#paint2_linear_7309_74708)"/>
<path d="M25.3721 3.70508C34.2199 3.70516 41.3926 11.0017 41.3926 20.002C41.3924 29.002 34.2198 36.2978 25.3721 36.2979C16.5243 36.2979 9.35178 29.002 9.35156 20.002C9.35156 11.0017 16.5241 3.70508 25.3721 3.70508ZM25.3701 4.81641C17.1255 4.81641 10.4414 11.6153 10.4414 20.002C10.4415 28.3885 17.1255 35.1875 25.3701 35.1875C33.6147 35.1875 40.2987 28.3885 40.2988 20.002C40.2988 11.6153 33.6148 4.81644 25.3701 4.81641Z" fill="url(#paint3_linear_7309_74708)"/>
<path d="M29.1256 27.249C28.9215 27.2487 28.7206 27.1974 28.5406 27.0996L25.4725 25.4601C25.4317 25.4382 25.3863 25.4268 25.3402 25.4268C25.2941 25.4268 25.2487 25.4382 25.2079 25.4601L22.1397 27.0996C21.9597 27.1974 21.7588 27.2487 21.5547 27.249C21.3717 27.2484 21.1911 27.2073 21.0253 27.1284C20.8595 27.0496 20.7126 26.9351 20.5948 26.7926C20.477 26.6502 20.3911 26.4834 20.3431 26.3038C20.2951 26.1242 20.2861 25.9362 20.3167 25.7527L20.9029 22.2786C20.9108 22.2322 20.9074 22.1845 20.893 22.1397C20.8786 22.095 20.8537 22.0545 20.8204 22.0218L18.3396 19.5612C18.1721 19.3947 18.0535 19.1838 17.9975 18.9524C17.9414 18.721 17.95 18.4783 18.0223 18.2516C18.0946 18.0249 18.2278 17.8233 18.4067 17.6695C18.5857 17.5156 18.8033 17.4157 19.0351 17.381L22.465 16.8748C22.5107 16.8678 22.5541 16.8496 22.5915 16.8219C22.6289 16.7942 22.6592 16.7577 22.6798 16.7155L24.2139 13.5538C24.3176 13.34 24.4781 13.1601 24.6771 13.0343C24.8762 12.9085 25.1058 12.8418 25.3402 12.8418C25.5745 12.8418 25.8042 12.9085 26.0032 13.0343C26.2022 13.1601 26.3627 13.34 26.4665 13.5538L28.0006 16.7155C28.0211 16.7577 28.0514 16.7942 28.0888 16.8219C28.1262 16.8496 28.1696 16.8678 28.2154 16.8748L31.6452 17.381C31.877 17.4157 32.0947 17.5156 32.2736 17.6695C32.4526 17.8233 32.5857 18.0249 32.658 18.2516C32.7303 18.4783 32.7389 18.721 32.6829 18.9524C32.6268 19.1838 32.5083 19.3947 32.3407 19.5612L29.8599 22.0218C29.8266 22.0545 29.8017 22.095 29.7873 22.1397C29.7729 22.1845 29.7695 22.2322 29.7774 22.2786L30.3636 25.7527C30.3943 25.9362 30.3853 26.1242 30.3373 26.3038C30.2892 26.4834 30.2033 26.6502 30.0855 26.7926C29.9677 26.9351 29.8208 27.0496 29.655 27.1284C29.4893 27.2073 29.3086 27.2484 29.1256 27.249V27.249Z" fill="#470068"/>
<path d="M26.0304 13.7715L27.5645 16.9332C27.62 17.047 27.7018 17.1454 27.8028 17.22C27.9038 17.2946 28.0211 17.3432 28.1446 17.3616L31.5745 17.8691C31.7168 17.8901 31.8505 17.9512 31.9604 18.0455C32.0703 18.1398 32.1521 18.2634 32.1966 18.4025C32.241 18.5416 32.2463 18.6906 32.2119 18.8326C32.1775 18.9746 32.1047 19.104 32.0017 19.2061L29.5197 21.6666C29.4304 21.7554 29.3636 21.865 29.3251 21.9858C29.2867 22.1067 29.2776 22.2353 29.2988 22.3605L29.8838 25.8358C29.9085 25.98 29.8929 26.1283 29.8388 26.2639C29.7847 26.3996 29.6944 26.5171 29.5779 26.6031C29.4615 26.6891 29.3238 26.7402 29.1802 26.7505C29.0367 26.7609 28.8932 26.7301 28.766 26.6617L25.7039 25.0222C25.5932 24.9626 25.4699 24.9315 25.3447 24.9315C25.2194 24.9315 25.0961 24.9626 24.9854 25.0222L21.9136 26.6617C21.7864 26.7301 21.6429 26.7609 21.4994 26.7505C21.3559 26.7402 21.2181 26.6891 21.1017 26.6031C20.9853 26.5171 20.8949 26.3996 20.8408 26.2639C20.7868 26.1283 20.7712 25.98 20.7958 25.8358L21.3808 22.3605C21.402 22.2353 21.393 22.1067 21.3545 21.9858C21.316 21.865 21.2492 21.7554 21.1599 21.6666L18.6779 19.2061C18.575 19.104 18.5022 18.9746 18.4677 18.8326C18.4333 18.6906 18.4386 18.5416 18.4831 18.4025C18.5275 18.2634 18.6093 18.1398 18.7192 18.0455C18.8292 17.9512 18.9628 17.8901 19.1051 17.8691L22.535 17.3616C22.6585 17.3432 22.7758 17.2946 22.8768 17.22C22.9779 17.1454 23.0596 17.047 23.1151 16.9332L24.6492 13.7715C24.7127 13.6402 24.811 13.5296 24.933 13.4523C25.0551 13.375 25.196 13.334 25.3398 13.334C25.4836 13.334 25.6245 13.375 25.7466 13.4523C25.8687 13.5296 25.967 13.6402 26.0304 13.7715V13.7715Z" fill="url(#paint4_linear_7309_74708)"/>
<path d="M25.3662 7.31641C32.1899 7.31664 37.7939 12.9558 37.7939 20.002C37.7938 27.048 32.1898 32.6873 25.3662 32.6875C18.5424 32.6875 12.9376 27.0482 12.9375 20.002C12.9375 12.9556 18.5423 7.31641 25.3662 7.31641Z" stroke="url(#paint5_linear_7309_74708)" stroke-width="5"/>
<path opacity="0.15" d="M40.7785 7.59267C39.8546 8.71742 39.0141 9.58591 37.989 10.5956C37.913 10.6723 37.8371 10.749 37.7612 10.8257C37.7106 10.8768 37.6726 10.9152 37.622 10.9663C37.4321 11.1452 37.2423 11.3369 37.0398 11.5159C36.9638 11.5798 36.9006 11.6437 36.8246 11.7204C36.774 11.7587 36.7234 11.8098 36.6854 11.8482C36.6221 11.9121 36.5588 11.9632 36.4956 12.0143C29.7625 18.0343 21.2069 21.7025 12.1704 22.3671C12.0818 22.3671 12.0059 22.3799 11.9173 22.3799C11.854 22.3799 11.7907 22.3927 11.7275 22.3927C11.6262 22.3927 11.5376 22.4055 11.4364 22.4055C11.1073 22.4182 10.7782 22.4438 10.4492 22.4438C10.3479 22.4438 10.234 22.4566 10.1328 22.4566C9.87966 22.4694 9.62653 22.4694 9.38607 22.4694C8.20904 22.4694 7.03202 22.431 5.84234 22.3288C5.75375 21.5747 5.70312 20.795 5.70312 20.0154C5.70312 8.95963 14.5751 0 25.51 0C30.4333 0 34.8227 1.92196 38.2905 4.93832C39.1891 5.71798 40.0192 6.65964 40.7785 7.59267Z" fill="url(#paint6_linear_7309_74708)"/>
<defs>
<filter id="filter0_f_7309_74708" x="-51.5234" y="-64.291" width="138.555" height="139.934" filterUnits="userSpaceOnUse" color-interpolation-filters="sRGB">
<feFlood flood-opacity="0" result="BackgroundImageFix"/>
<feBlend mode="normal" in="SourceGraphic" in2="BackgroundImageFix" result="shape"/>
<feGaussianBlur stdDeviation="29.5" result="effect1_foregroundBlur_7309_74708"/>
</filter>
<filter id="filter1_f_7309_74708" x="-29.2656" y="-64.8535" width="132.836" height="140.729" filterUnits="userSpaceOnUse" color-interpolation-filters="sRGB">
<feFlood flood-opacity="0" result="BackgroundImageFix"/>
<feBlend mode="normal" in="SourceGraphic" in2="BackgroundImageFix" result="shape"/>
<feGaussianBlur stdDeviation="29.5" result="effect1_foregroundBlur_7309_74708"/>
</filter>
<filter id="filter2_f_7309_74708" x="-29.8672" y="-32.6992" width="132.352" height="132.605" filterUnits="userSpaceOnUse" color-interpolation-filters="sRGB">
<feFlood flood-opacity="0" result="BackgroundImageFix"/>
<feBlend mode="normal" in="SourceGraphic" in2="BackgroundImageFix" result="shape"/>
<feGaussianBlur stdDeviation="29.5" result="effect1_foregroundBlur_7309_74708"/>
</filter>
<filter id="filter3_f_7309_74708" x="-52.6953" y="-34.4258" width="132.359" height="132.604" filterUnits="userSpaceOnUse" color-interpolation-filters="sRGB">
<feFlood flood-opacity="0" result="BackgroundImageFix"/>
<feBlend mode="normal" in="SourceGraphic" in2="BackgroundImageFix" result="shape"/>
<feGaussianBlur stdDeviation="29.5" result="effect1_foregroundBlur_7309_74708"/>
</filter>
<linearGradient id="paint0_linear_7309_74708" x1="47.2818" y1="36.2817" x2="39.833" y2="31.1494" gradientUnits="userSpaceOnUse">
<stop stop-color="#FC0106"/>
<stop offset="0.5559" stop-color="#E82626"/>
<stop offset="0.6787" stop-color="#B90004"/>
<stop offset="1" stop-color="#790400"/>
</linearGradient>
<linearGradient id="paint1_linear_7309_74708" x1="4.24789" y1="35.2491" x2="9.2361" y2="31.1399" gradientUnits="userSpaceOnUse">
<stop stop-color="#FC0106"/>
<stop offset="0.493927" stop-color="#E82626"/>
<stop offset="0.716768" stop-color="#B90004"/>
<stop offset="1" stop-color="#790400"/>
</linearGradient>
<linearGradient id="paint2_linear_7309_74708" x1="25.3658" y1="4.81641" x2="25.3658" y2="35.1871" gradientUnits="userSpaceOnUse">
<stop stop-color="#BD49D0"/>
<stop offset="0.5" stop-color="#9703B9"/>
<stop offset="1" stop-color="#852878"/>
</linearGradient>
<linearGradient id="paint3_linear_7309_74708" x1="25.3721" y1="3.53405" x2="25.3721" y2="36.2814" gradientUnits="userSpaceOnUse">
<stop stop-color="#FFEE02"/>
<stop offset="0.5" stop-color="#D27003"/>
<stop offset="1" stop-color="#FBA400"/>
</linearGradient>
<linearGradient id="paint4_linear_7309_74708" x1="25.3419" y1="13.4664" x2="25.3419" y2="25.1389" gradientUnits="userSpaceOnUse">
<stop offset="0.0820804" stop-color="#F7E547"/>
<stop offset="0.2263" stop-color="#FEFCAF"/>
<stop offset="0.3883" stop-color="#F8DC20"/>
<stop offset="0.5895" stop-color="#E67A0B"/>
<stop offset="1" stop-color="#F8DC20"/>
</linearGradient>
<linearGradient id="paint5_linear_7309_74708" x1="25.3658" y1="4.81641" x2="25.3658" y2="35.1871" gradientUnits="userSpaceOnUse">
<stop stop-color="#AB2EBE"/>
<stop offset="1" stop-color="#340354"/>
</linearGradient>
<linearGradient id="paint6_linear_7309_74708" x1="14.9712" y1="3.08325" x2="26.3306" y2="18.7141" gradientUnits="userSpaceOnUse">
<stop offset="0.5084" stop-color="white" stop-opacity="0"/>
<stop offset="1" stop-color="white"/>
</linearGradient>
</defs>
</svg>
