<svg width="12" height="12" viewBox="0 0 12 12" fill="none" xmlns="http://www.w3.org/2000/svg">
<g clip-path="url(#clip0_7309_74740)">
<path d="M2.25547 0.544531C1.87578 0.692188 1.55469 0.889063 1.23359 1.21016C0.9125 1.52891 0.715625 1.85234 0.567969 2.22969C0.425 2.59531 0.328906 3.01484 0.300781 3.62891C0.272656 4.24297 0.265625 4.43984 0.265625 6.00547C0.265625 7.57109 0.272656 7.76797 0.300781 8.38203C0.328906 8.99609 0.427344 9.41563 0.567969 9.78125C0.715625 10.1609 0.9125 10.482 1.23359 10.8031C1.55469 11.1242 1.87578 11.3211 2.25547 11.4688C2.62109 11.6117 3.04063 11.7078 3.65469 11.7359C4.26875 11.7641 4.46563 11.7711 6.03125 11.7711C7.59688 11.7711 7.79375 11.7641 8.40781 11.7359C9.02187 11.7078 9.44141 11.6094 9.80703 11.4688C10.1867 11.3211 10.5078 11.1242 10.8289 10.8031C11.15 10.482 11.3469 10.1609 11.4945 9.78125C11.6375 9.41563 11.7336 8.99609 11.7617 8.38203C11.7898 7.76797 11.7969 7.57109 11.7969 6.00547C11.7969 4.43984 11.7898 4.24297 11.7617 3.62891C11.7336 3.01484 11.6352 2.59531 11.4945 2.22969C11.3469 1.85234 11.15 1.52891 10.8312 1.21016C10.5102 0.889063 10.1891 0.692188 9.80937 0.544531C9.44375 0.401563 9.02422 0.305469 8.41016 0.277344C7.79609 0.249219 7.59922 0.242188 6.03359 0.242188C4.46797 0.242188 4.27109 0.249219 3.65703 0.277344C3.04062 0.303125 2.62109 0.401563 2.25547 0.544531ZM8.36094 1.31328C8.92344 1.33906 9.22812 1.43281 9.43203 1.5125C9.70156 1.61797 9.89375 1.74219 10.0953 1.94375C10.2969 2.14531 10.4211 2.3375 10.5266 2.60703C10.6062 2.81094 10.7 3.11562 10.7258 3.67813C10.7539 4.28516 10.7586 4.46797 10.7586 6.00781C10.7586 7.54766 10.7516 7.73047 10.7258 8.3375C10.7 8.9 10.6062 9.20469 10.5266 9.4086C10.4211 9.67813 10.2969 9.87031 10.0953 10.0719C9.89375 10.2734 9.70156 10.3977 9.43203 10.5031C9.22812 10.5828 8.92344 10.6766 8.36094 10.7023C7.75391 10.7305 7.57109 10.7352 6.03125 10.7352C4.49141 10.7352 4.30859 10.7281 3.70156 10.7023C3.13906 10.6766 2.83438 10.5828 2.63047 10.5031C2.36094 10.3977 2.16875 10.2734 1.96719 10.0719C1.76563 9.87031 1.64141 9.67813 1.53594 9.4086C1.45625 9.20469 1.3625 8.9 1.33672 8.3375C1.30859 7.73047 1.30391 7.54766 1.30391 6.00781C1.30391 4.46797 1.31094 4.28516 1.33672 3.67813C1.3625 3.11562 1.45625 2.81094 1.53594 2.60703C1.64141 2.3375 1.76563 2.14531 1.96719 1.94375C2.16875 1.74219 2.36094 1.61797 2.63047 1.5125C2.83438 1.43281 3.13906 1.33906 3.70156 1.31328C4.30859 1.28516 4.49141 1.28047 6.03125 1.28047C7.57109 1.28047 7.75391 1.28516 8.36094 1.31328Z" fill="#262626"/>
<path d="M3.0625 6.00703C3.0625 7.64297 4.38906 8.96719 6.02266 8.96719C7.65625 8.96719 8.98281 7.64062 8.98281 6.00703C8.98281 4.37344 7.65859 3.04688 6.02266 3.04688C4.38672 3.04688 3.0625 4.37109 3.0625 6.00703ZM7.94453 6.00703C7.94453 7.06875 7.08437 7.92891 6.02266 7.92891C4.96094 7.92891 4.10078 7.06875 4.10078 6.00703C4.10078 4.94531 4.96094 4.08516 6.02266 4.08516C7.08437 4.08516 7.94453 4.94531 7.94453 6.00703Z" fill="#262626"/>
<path d="M9.11328 3.62109C9.49513 3.62109 9.80469 3.31154 9.80469 2.92969C9.80469 2.54783 9.49513 2.23828 9.11328 2.23828C8.73143 2.23828 8.42188 2.54783 8.42188 2.92969C8.42188 3.31154 8.73143 3.62109 9.11328 3.62109Z" fill="#262626"/>
</g>
<defs>
<clipPath id="clip0_7309_74740">
<rect width="12" height="12" fill="white"/>
</clipPath>
</defs>
</svg>
