<svg width="12" height="12" viewBox="0 0 12 12" fill="none" xmlns="http://www.w3.org/2000/svg">
<g clip-path="url(#clip0_7309_74738)">
<path d="M11.1142 0H0.885833C0.650896 0 0.425581 0.0933287 0.259455 0.259455C0.0933287 0.425581 0 0.650896 0 0.885833V11.1142C0 11.3491 0.0933287 11.5744 0.259455 11.7405C0.425581 11.9067 0.650896 12 0.885833 12H11.1142C11.3491 12 11.5744 11.9067 11.7405 11.7405C11.9067 11.5744 12 11.3491 12 11.1142V0.885833C12 0.650896 11.9067 0.425581 11.7405 0.259455C11.5744 0.0933287 11.3491 0 11.1142 0ZM3.57667 10.2225H1.7725V4.49167H3.57667V10.2225ZM2.67333 3.6975C2.46868 3.69635 2.26896 3.6346 2.09937 3.52004C1.92978 3.40549 1.79792 3.24327 1.72044 3.05384C1.64296 2.86442 1.62332 2.6563 1.66402 2.45573C1.70471 2.25516 1.8039 2.07114 1.94908 1.92689C2.09425 1.78264 2.27891 1.68463 2.47973 1.64523C2.68056 1.60583 2.88856 1.6268 3.07748 1.70549C3.2664 1.78419 3.42777 1.91708 3.54123 2.08741C3.6547 2.25773 3.71516 2.45785 3.715 2.6625C3.71693 2.79952 3.69126 2.93552 3.63951 3.0624C3.58776 3.18928 3.51099 3.30445 3.41379 3.40103C3.31658 3.49762 3.20092 3.57364 3.07371 3.62458C2.9465 3.67551 2.81033 3.70031 2.67333 3.6975ZM10.2267 10.2275H8.42333V7.09667C8.42333 6.17333 8.03083 5.88833 7.52417 5.88833C6.98917 5.88833 6.46417 6.29167 6.46417 7.12V10.2275H4.66V4.49583H6.395V5.29H6.41833C6.5925 4.9375 7.2025 4.335 8.13333 4.335C9.14 4.335 10.2275 4.9325 10.2275 6.6825L10.2267 10.2275Z" fill="#262626"/>
</g>
<defs>
<clipPath id="clip0_7309_74738">
<rect width="12" height="12" fill="white"/>
</clipPath>
</defs>
</svg>
