<svg width="12" height="12" viewBox="0 0 12 12" fill="none" xmlns="http://www.w3.org/2000/svg">
<g clip-path="url(#clip0_7309_74742)">
<path d="M6.76872 5.91385C6.76872 7.79921 5.25347 9.32759 3.38442 9.32759C1.51536 9.32759 0 7.79886 0 5.91385C0 4.02884 1.51525 2.5 3.38442 2.5C5.25359 2.5 6.76872 4.02849 6.76872 5.91385Z" fill="#262626"/>
<path d="M10.486 5.9131C10.486 7.68775 9.72836 9.12697 8.79377 9.12697C7.85919 9.12697 7.10156 7.68775 7.10156 5.9131C7.10156 4.13844 7.85907 2.69922 8.79366 2.69922C9.72824 2.69922 10.4859 4.13798 10.4859 5.9131" fill="#262626"/>
<path d="M12.0027 5.91428C12.0027 7.50394 11.7363 8.79341 11.4075 8.79341C11.0788 8.79341 10.8125 7.50429 10.8125 5.91428C10.8125 4.32428 11.0789 3.03516 11.4075 3.03516C11.7362 3.03516 12.0027 4.32416 12.0027 5.91428Z" fill="#262626"/>
</g>
<defs>
<clipPath id="clip0_7309_74742">
<rect width="12" height="12" fill="white"/>
</clipPath>
</defs>
</svg>
