<svg width="50" height="40" viewBox="0 0 50 40" fill="none" xmlns="http://www.w3.org/2000/svg">
<path d="M37.6172 35.3096C37.6172 35.3096 38.3454 36.3812 40.6647 37.885C40.8383 37.9961 41.0204 38.1109 41.2121 38.2269C41.9403 38.6701 42.796 39.1418 43.807 39.6306L44.0497 33.3343C44.0497 33.3343 47.2053 33.5812 49.9967 32.3466C49.6751 32.1837 48.2891 31.4244 46.2962 29.8528C46.1178 29.7133 45.9321 29.5651 45.7452 29.4108C44.8641 28.6898 43.8822 27.8219 42.8324 26.791C41.2582 29.5071 37.6172 35.3096 37.6172 35.3096Z" fill="url(#paint0_linear_7309_74767)"/>
<path d="M12.3796 34.9405C12.3796 34.9405 11.6513 36.0121 9.332 37.5158C9.15844 37.6269 8.97639 37.7417 8.78463 37.8578C8.05642 38.301 7.20684 38.7726 6.18978 39.2615L5.94704 32.9652C5.94704 32.9652 2.79147 33.2121 0 31.9775C0.321626 31.8145 1.70765 31.0553 3.70052 29.4836C3.87893 29.3441 4.06462 29.196 4.25153 29.0417C5.13266 28.3207 6.11453 27.4527 7.16436 26.4219C8.73851 29.138 12.3796 34.9405 12.3796 34.9405Z" fill="url(#paint1_linear_7309_74767)"/>
<path d="M9.33461 37.5152C9.16105 37.6263 8.979 37.7411 8.78724 37.8572C8.35395 36.4263 6.62689 33.2657 5.94965 32.3472C5.47305 31.6882 4.94544 31.0689 4.37186 30.4954C4.14733 30.267 3.87668 29.804 3.70312 29.483C3.88154 29.3435 4.06723 29.1953 4.25414 29.041C4.47503 29.3966 4.81 29.9287 5.10371 30.3719C5.58919 31.1126 8.62339 35.0633 8.9875 35.804C9.22659 36.2954 9.3067 37.0571 9.33461 37.5152Z" fill="#9925E8"/>
<path d="M25.0059 0C35.8644 0.000251379 44.6669 8.95444 44.667 20C44.667 31.0457 35.8645 39.9997 25.0059 40C14.147 40 5.34375 31.0458 5.34375 20C5.34386 8.95429 14.1471 0 25.0059 0ZM25.0098 4.81641C16.7653 4.8166 10.082 11.6154 10.082 20.002C10.0821 28.3884 16.7653 35.1873 25.0098 35.1875C33.2544 35.1875 39.9384 28.3885 39.9385 20.002C39.9385 11.6153 33.2544 4.81641 25.0098 4.81641Z" fill="#6C7E92"/>
<mask id="mask0_7309_74767" style="mask-type:alpha" maskUnits="userSpaceOnUse" x="5" y="0" width="40" height="40">
<path d="M24.9902 0C35.8489 0.000104831 44.6513 8.95435 44.6514 20C44.6514 31.0457 35.849 39.9999 24.9902 40C14.1314 40 5.32812 31.0458 5.32812 20C5.32823 8.95429 14.1315 0 24.9902 0ZM24.9873 4.81641C16.7426 4.81641 10.0586 11.6153 10.0586 20.002C10.0587 28.3885 16.7427 35.1875 24.9873 35.1875C33.2318 35.1874 39.9149 28.3884 39.915 20.002C39.915 11.6154 33.2319 4.81653 24.9873 4.81641Z" fill="#6C7E92"/>
</mask>
<g mask="url(#mask0_7309_74767)">
<g filter="url(#filter0_f_7309_74767)">
<ellipse cx="4.52615" cy="9.188" rx="4.52615" ry="9.188" transform="matrix(0.730875 0.682511 -0.669981 0.742378 15.8203 -3.08789)" fill="#F0F2F7"/>
</g>
<g filter="url(#filter1_f_7309_74767)">
<ellipse cx="4.51008" cy="9.22042" rx="4.51008" ry="9.22042" transform="matrix(-0.86229 0.506416 -0.493612 -0.869682 46.125 12.5586)" fill="#F0F2F7"/>
</g>
<g filter="url(#filter2_f_7309_74767)">
<ellipse cx="4.52945" cy="9.18132" rx="4.52945" ry="9.18132" transform="matrix(-0.701045 -0.713117 0.701045 -0.713117 32.6797 43.3809)" fill="#F0F2F7"/>
</g>
<g filter="url(#filter3_f_7309_74767)">
<ellipse cx="4.52945" cy="9.18132" rx="4.52945" ry="9.18132" transform="matrix(0.701045 -0.713117 0.701045 0.713117 3.51562 28.5586)" fill="#889BAF"/>
</g>
</g>
<ellipse cx="24.9986" cy="20.0017" rx="14.9283" ry="15.1853" fill="url(#paint2_linear_7309_74767)"/>
<path d="M24.999 7.31641C31.8227 7.31664 37.4268 12.9558 37.4268 20.002C37.4266 27.048 31.8227 32.6873 24.999 32.6875C18.1752 32.6875 12.5704 27.0482 12.5703 20.002C12.5703 12.9556 18.1751 7.31641 24.999 7.31641Z" stroke="url(#paint3_linear_7309_74767)" stroke-width="5"/>
<path d="M24.998 3.70508C33.8458 3.70533 41.0186 11.0018 41.0186 20.002C41.0183 29.0019 33.8456 36.2976 24.998 36.2979C16.1502 36.2979 8.97678 29.002 8.97656 20.002C8.97656 11.0017 16.1501 3.70508 24.998 3.70508ZM24.9961 4.81641C16.7514 4.81641 10.0674 11.6153 10.0674 20.002C10.0675 28.3885 16.7515 35.1875 24.9961 35.1875C33.2405 35.1873 39.9237 28.3884 39.9238 20.002C39.9238 11.6154 33.2406 4.81661 24.9961 4.81641Z" fill="url(#paint4_linear_7309_74767)"/>
<path d="M28.7663 27.249C28.5622 27.2487 28.3613 27.1974 28.1813 27.0996L25.1131 25.4601C25.0723 25.4382 25.0269 25.4268 24.9808 25.4268C24.9347 25.4268 24.8893 25.4382 24.8485 25.4601L21.7803 27.0996C21.6003 27.1974 21.3994 27.2487 21.1953 27.249C21.0123 27.2484 20.8317 27.2073 20.6659 27.1284C20.5002 27.0496 20.3533 26.9351 20.2354 26.7926C20.1176 26.6502 20.0317 26.4834 19.9837 26.3038C19.9357 26.1242 19.9267 25.9362 19.9574 25.7527L20.5436 22.2786C20.5514 22.2322 20.548 22.1845 20.5336 22.1397C20.5192 22.095 20.4943 22.0545 20.461 22.0218L17.9803 19.5612C17.8127 19.3947 17.6942 19.1838 17.6381 18.9524C17.582 18.721 17.5906 18.4783 17.6629 18.2516C17.7353 18.0249 17.8684 17.8233 18.0473 17.6695C18.2263 17.5156 18.4439 17.4157 18.6757 17.381L22.1056 16.8748C22.1513 16.8678 22.1948 16.8496 22.2322 16.8219C22.2696 16.7942 22.2998 16.7577 22.3204 16.7155L23.8545 13.5538C23.9583 13.34 24.1187 13.1601 24.3178 13.0343C24.5168 12.9085 24.7465 12.8418 24.9808 12.8418C25.2151 12.8418 25.4448 12.9085 25.6438 13.0343C25.8429 13.1601 26.0033 13.34 26.1071 13.5538L27.6412 16.7155C27.6618 16.7577 27.692 16.7942 27.7294 16.8219C27.7668 16.8496 27.8102 16.8678 27.856 16.8748L31.2859 17.381C31.5177 17.4157 31.7353 17.5156 31.9142 17.6695C32.0932 17.8233 32.2263 18.0249 32.2986 18.2516C32.3709 18.4783 32.3796 18.721 32.3235 18.9524C32.2674 19.1838 32.1489 19.3947 31.9813 19.5612L29.5005 22.0218C29.4673 22.0545 29.4423 22.095 29.4279 22.1397C29.4136 22.1845 29.4102 22.2322 29.418 22.2786L30.0042 25.7527C30.0349 25.9362 30.0259 26.1242 29.9779 26.3038C29.9299 26.4834 29.8439 26.6502 29.7261 26.7926C29.6083 26.9351 29.4614 27.0496 29.2957 27.1284C29.1299 27.2073 28.9492 27.2484 28.7663 27.249V27.249Z" fill="#053A4C"/>
<path d="M25.671 13.7715L27.2051 16.9332C27.2606 17.047 27.3424 17.1454 27.4434 17.22C27.5445 17.2946 27.6617 17.3432 27.7853 17.3616L31.2151 17.8691C31.3574 17.8901 31.4911 17.9512 31.601 18.0455C31.7109 18.1398 31.7928 18.2634 31.8372 18.4025C31.8816 18.5416 31.8869 18.6906 31.8525 18.8326C31.8181 18.9746 31.7453 19.104 31.6423 19.2061L29.1604 21.6666C29.071 21.7554 29.0042 21.865 28.9658 21.9858C28.9273 22.1067 28.9183 22.2353 28.9395 22.3605L29.5245 25.8358C29.5491 25.98 29.5335 26.1283 29.4794 26.2639C29.4253 26.3996 29.335 26.5171 29.2186 26.6031C29.1022 26.6891 28.9644 26.7402 28.8209 26.7505C28.6774 26.7609 28.5339 26.7301 28.4067 26.6617L25.3445 25.0222C25.2339 24.9626 25.1105 24.9315 24.9853 24.9315C24.8601 24.9315 24.7367 24.9626 24.626 25.0222L21.5542 26.6617C21.427 26.7301 21.2835 26.7609 21.14 26.7505C20.9965 26.7402 20.8587 26.6891 20.7423 26.6031C20.6259 26.5171 20.5355 26.3996 20.4815 26.2639C20.4274 26.1283 20.4118 25.98 20.4364 25.8358L21.0214 22.3605C21.0426 22.2353 21.0336 22.1067 20.9951 21.9858C20.9566 21.865 20.8899 21.7554 20.8005 21.6666L18.3185 19.2061C18.2156 19.104 18.1428 18.9746 18.1084 18.8326C18.0739 18.6906 18.0792 18.5416 18.1237 18.4025C18.1681 18.2634 18.2499 18.1398 18.3599 18.0455C18.4698 17.9512 18.6035 17.8901 18.7458 17.8691L22.1756 17.3616C22.2991 17.3432 22.4164 17.2946 22.5175 17.22C22.6185 17.1454 22.7003 17.047 22.7558 16.9332L24.2899 13.7715C24.3533 13.6402 24.4516 13.5296 24.5737 13.4523C24.6957 13.375 24.8366 13.334 24.9804 13.334C25.1242 13.334 25.2652 13.375 25.3872 13.4523C25.5093 13.5296 25.6076 13.6402 25.671 13.7715V13.7715Z" fill="url(#paint5_linear_7309_74767)"/>
<path opacity="0.15" d="M40.4192 7.59267C39.4953 8.71742 38.6548 9.58591 37.6296 10.5956C37.5537 10.6723 37.4777 10.749 37.4018 10.8257C37.3512 10.8768 37.3132 10.9152 37.2626 10.9663C37.0727 11.1452 36.8829 11.3369 36.6804 11.5159C36.6045 11.5798 36.5412 11.6437 36.4652 11.7204C36.4146 11.7587 36.364 11.8098 36.326 11.8482C36.2627 11.9121 36.1995 11.9632 36.1362 12.0143C29.4031 18.0343 20.8475 21.7025 11.811 22.3671C11.7225 22.3671 11.6465 22.3799 11.5579 22.3799C11.4946 22.3799 11.4314 22.3927 11.3681 22.3927C11.2668 22.3927 11.1782 22.4055 11.077 22.4055C10.7479 22.4182 10.4189 22.4438 10.0898 22.4438C9.98856 22.4438 9.87465 22.4566 9.77341 22.4566C9.52028 22.4694 9.26716 22.4694 9.02669 22.4694C7.84967 22.4694 6.67265 22.431 5.48297 22.3288C5.39437 21.5747 5.34375 20.795 5.34375 20.0154C5.34375 8.95963 14.2157 0 25.1506 0C30.0739 0 34.4633 1.92196 37.9311 4.93832C38.8297 5.71798 39.6598 6.65964 40.4192 7.59267Z" fill="url(#paint6_linear_7309_74767)"/>
<defs>
<filter id="filter0_f_7309_74767" x="-53.0156" y="-59.668" width="131.977" height="132.98" filterUnits="userSpaceOnUse" color-interpolation-filters="sRGB">
<feFlood flood-opacity="0" result="BackgroundImageFix"/>
<feBlend mode="normal" in="SourceGraphic" in2="BackgroundImageFix" result="shape"/>
<feGaussianBlur stdDeviation="29.5" result="effect1_foregroundBlur_7309_74767"/>
</filter>
<filter id="filter1_f_7309_74767" x="-27.3047" y="-60.5156" width="129.977" height="134.68" filterUnits="userSpaceOnUse" color-interpolation-filters="sRGB">
<feFlood flood-opacity="0" result="BackgroundImageFix"/>
<feBlend mode="normal" in="SourceGraphic" in2="BackgroundImageFix" result="shape"/>
<feGaussianBlur stdDeviation="29.5" result="effect1_foregroundBlur_7309_74767"/>
</filter>
<filter id="filter2_f_7309_74767" x="-30.2344" y="-32.6992" width="132.352" height="132.605" filterUnits="userSpaceOnUse" color-interpolation-filters="sRGB">
<feFlood flood-opacity="0" result="BackgroundImageFix"/>
<feBlend mode="normal" in="SourceGraphic" in2="BackgroundImageFix" result="shape"/>
<feGaussianBlur stdDeviation="29.5" result="effect1_foregroundBlur_7309_74767"/>
</filter>
<filter id="filter3_f_7309_74767" x="-53.0547" y="-34.4258" width="132.359" height="132.604" filterUnits="userSpaceOnUse" color-interpolation-filters="sRGB">
<feFlood flood-opacity="0" result="BackgroundImageFix"/>
<feBlend mode="normal" in="SourceGraphic" in2="BackgroundImageFix" result="shape"/>
<feGaussianBlur stdDeviation="29.5" result="effect1_foregroundBlur_7309_74767"/>
</filter>
<linearGradient id="paint0_linear_7309_74767" x1="46.4164" y1="35.9269" x2="40.0452" y2="32.0123" gradientUnits="userSpaceOnUse">
<stop offset="0.01" stop-color="#9D00FF"/>
<stop offset="0.41" stop-color="#7B00DB"/>
<stop offset="0.53" stop-color="#9825E4"/>
<stop offset="0.62" stop-color="#6800B5"/>
<stop offset="1" stop-color="#400071"/>
</linearGradient>
<linearGradient id="paint1_linear_7309_74767" x1="2.71501" y1="35.922" x2="10.168" y2="30.7909" gradientUnits="userSpaceOnUse">
<stop offset="0.01" stop-color="#9D00FF"/>
<stop offset="0.41" stop-color="#7B00DB"/>
<stop offset="0.53" stop-color="#9825E4"/>
<stop offset="0.62" stop-color="#6800B5"/>
<stop offset="1" stop-color="#400071"/>
</linearGradient>
<linearGradient id="paint2_linear_7309_74767" x1="24.9986" y1="4.81641" x2="24.9986" y2="35.1871" gradientUnits="userSpaceOnUse">
<stop stop-color="#2A99A4"/>
<stop offset="0.484375" stop-color="#10667B"/>
<stop offset="1" stop-color="#184A61"/>
</linearGradient>
<linearGradient id="paint3_linear_7309_74767" x1="24.9986" y1="4.81641" x2="24.9986" y2="35.1871" gradientUnits="userSpaceOnUse">
<stop stop-color="#3F879B"/>
<stop offset="1" stop-color="#062C3C"/>
</linearGradient>
<linearGradient id="paint4_linear_7309_74767" x1="24.9976" y1="3.70508" x2="24.9976" y2="36.2979" gradientUnits="userSpaceOnUse">
<stop stop-color="#3C4E56"/>
<stop offset="1" stop-color="#ADBED2"/>
</linearGradient>
<linearGradient id="paint5_linear_7309_74767" x1="24.9804" y1="13.4641" x2="24.9804" y2="25.1432" gradientUnits="userSpaceOnUse">
<stop offset="0.08" stop-color="#C8D0E5"/>
<stop offset="0.23" stop-color="#FAFAFA"/>
<stop offset="0.39" stop-color="#C8D1E2"/>
<stop offset="0.59" stop-color="#566B7C"/>
<stop offset="1" stop-color="#A9B8CF"/>
</linearGradient>
<linearGradient id="paint6_linear_7309_74767" x1="14.6118" y1="3.08325" x2="25.9713" y2="18.7141" gradientUnits="userSpaceOnUse">
<stop offset="0.5084" stop-color="white" stop-opacity="0"/>
<stop offset="1" stop-color="white"/>
</linearGradient>
</defs>
</svg>
